<?xml version="1.0" standalone="no"?><!DOCTYPE svg PUBLIC "-//W3C//DTD SVG 1.1//EN" "http://www.w3.org/Graphics/SVG/1.1/DTD/svg11.dtd"><svg t="1716658666972" class="icon" viewBox="0 0 1024 1024" version="1.1" xmlns="http://www.w3.org/2000/svg" p-id="2332" xmlns:xlink="http://www.w3.org/1999/xlink" width="200" height="200"><path d="M784.8 64.3H239.2c-95.8 0-174.9 79.1-174.9 174.9v545.7c0 96.5 79.1 174.9 174.9 174.9h545.7c96.5 0 174.9-79.1 174.9-174.9V239.2c-0.1-95.9-78.4-174.9-175-174.9z m-575 185.4c24.5 2.1 41.3 2.8 77 2.8h179.8c-8.4-15.4-12.6-23.1-26.6-44.1l77-28c21 35 21.7 37.1 37.1 72.1h184.7c35.7 0 51.8-0.7 77.7-2.8-2.1 18.2-2.8 30.8-2.8 51.1V354c0 22.4 0.7 35 2.8 51.8h-74.9v-87.4H285.3v87.4H209c2.8-16.1 3.5-27.3 3.5-51.8v-51.8c0.1-20.4-0.6-33.7-2.7-52.5z m98.6 147.6l48.3-50.4c61.6 19.6 70 23.1 132.2 55.3l-46.2 57.4c-48.2-31.5-72.7-42.7-134.3-62.3zM442 498l-46.2 58.8c-46.9-31.5-72.8-44.1-134.3-65.1l47.6-53.2c52.5 16.1 72.8 25.2 132.9 59.5z m65.1 221.1c-34.3 32.2-74.9 57.4-126.6 79.8-44.8 18.9-77 28-144.8 42.7-11.9-33.6-23.1-51.8-44.8-74.2 72.1-9.1 121.7-21.7 177-45.5 32.2-14 63.7-32.2 81.9-47.6 9.1-7 14.7-14 25.2-29.4H282.5c-26.6 0-53.2 1.4-81.9 4.2l-0.7-79.1c45.5 3.5 60.2 4.2 82.6 4.2h211.3c9.1-62.3 12.6-109.1 12.6-158.8 0-33.6-0.7-48.3-2.8-65.8h83.9c-2.8 21-2.8 28-3.5 58.8-0.7 46.2-3.5 82.6-12.6 165.8h174.2c33.6 0 58.1-1.4 80.5-5.6v79.1c-19.6-2.8-38.5-3.5-79.8-3.5H557.5c-15.4 36.4-26.6 52.5-50.4 74.9z m288.2 124.5c-74.9-44.1-138.5-74.2-250.5-119.6l44.8-60.2c24.5 9.1 30.1 11.2 60.9 24.5 109.8 46.2 138.5 59.5 182.6 84.6l-37.8 70.7z" p-id="2333" fill="#409EFF"></path></svg>